<svg xmlns="http://www.w3.org/2000/svg" width="1027" height="280"><path fill="#FFF" d="M13 1c3.432 2.844 4.78 5.465 6.25 9.625 5.717 14.283 16.82 23.016 30.574 29.148C53.173 41.067 56.544 42.033 60 43l-.016-3.748q-.026-6.857-.039-13.714-.008-2.973-.02-5.945a3168 3168 0 0 1-.023-8.527l-.015-2.702c0-2.121.05-4.243.113-6.364C61.727.273 64.037.874 66.39.873l3.544-.009 3.923.007 4.104-.006q5.587-.004 11.176 0c3.89.003 7.78 0 11.67 0q9.8-.003 19.6.005 11.348.006 22.694-.002 9.726-.007 19.45-.003 5.815.003 11.632-.001 5.466-.004 10.932.005 2.976.002 5.95-.005l3.544.009 3.1.001C200 1 200 1 201 2c.188 2.938.188 2.938 0 6-2.607 2.607-4.41 2.236-7.96 2.249l-2.529-.022h-2.66a1784 1784 0 0 1-8.734-.032l-6.045-.008c-5.31-.008-10.62-.028-15.93-.05-5.416-.02-10.832-.03-16.247-.04Q124.947 10.066 109 10a4050 4050 0 0 0-1.578 76.653c-.134 11.872-.34 23.736-.716 35.604-.425 13.688-.673 27.368-.636 41.063l.01 3.329c.138 35.435.138 35.435 17.718 64.96A114.7 114.7 0 0 0 148 249c3.88-1.795 6.27-4.1 9.25-7.187 3.07-3.143 6.133-6.235 9.5-9.063 2.79-2.35 5.342-4.85 7.867-7.477l1.993-2.057a352 352 0 0 0 3.936-4.15c2.902-3.003 4.755-4.842 8.79-6.136C192 213 192 213 194 215c.531 2.691.531 2.691 0 6-1.862 2.636-4.14 4.75-6.5 6.938l-1.963 1.888c-3.661 3.5-7.414 6.871-11.283 10.139-4.08 3.683-7.886 7.649-11.752 11.553-3.77 3.793-7.594 7.43-11.682 10.88-2.207 1.942-4.255 4.01-6.32 6.102-11.035 11.073-11.035 11.073-15.5 12.375-9.253-2.699-17.662-14.298-24.434-21a7314.465 7314.465 0 0 1-11.895-11.799 1999 1999 0 0 0-8.255-8.152 1853 1853 0 0 1-10.006-9.906 646 646 0 0 0-3.807-3.75 561 561 0 0 1-5.292-5.26l-1.595-1.534c-5.094-5.198-4.852-10.951-4.798-17.896l.021-3.778.04-4.089q.016-2.174.028-4.348.042-5.878.094-11.756.05-6.153.092-12.304.085-11.64.18-23.278.107-13.256.203-26.51Q59.78 88.256 60 61l-1.835-.177-2.427-.248-2.397-.24C39.076 58.29 25.964 48.785 16 39l-2.16-2.086C7.045 29.87.602 19.507-.312 9.625.051 5.393.99 3.924 4 1 7.584-.195 9.37.037 13 1M455 105l1.813-1.937c4.006-3.778 8.292-3.334 13.519-3.286 3.28.274 5.185 1.06 7.668 3.223 2.445 3.667 2.282 6.406 2.259 10.646l.01 2.357c.01 2.578.003 5.157-.003 7.735l.005 5.402q.005 5.676-.01 11.351c-.012 4.814-.005 9.627.007 14.44q.009 5.589 0 11.179-.003 2.657.005 5.315c.041 19.995-1.12 39.955-15.117 55.641-11.133 10.563-25.112 12.52-39.777 12.18-13.367-.574-24.292-6.5-33.504-16-2.728-3.268-4.67-6.014-5.375-10.246.778-4.666 3.44-6.498 7.145-9.2 4.202-2.703 7.43-3.62 12.355-2.8 2.563 2.188 2.563 2.188 5 5 5.56 5.19 10.797 8.069 18.438 8.375 6.997-.313 12.524-1.819 17.437-7 3.85-4.834 6.125-10.16 6.125-16.375l-1.504.805-2.058 1.07-2.004 1.055c-10.515 4.624-24.025 4.827-34.997 1.507-12.006-4.789-21.098-13.198-26.812-24.75-2.642-6.152-4.031-12.032-4.625-18.687l-.215-2.258c-.626-13.577 4.344-27.098 12.84-37.554C410.347 94.703 434.541 94.822 455 105m-42.305 25c-5.352 6.314-6.352 12.692-6.086 20.844.571 4.611 2.012 8.196 4.391 12.156l1.625 2.75c5.062 4.796 10.879 7.528 17.875 7.875 6.771-.364 12.462-2.677 17.352-7.422 5.055-6.225 7.53-12.734 7.086-20.766-1.14-8.504-4.35-13.645-10.997-19.03-10.139-7.345-22.661-4.748-31.246 3.593M955 106a114 114 0 0 1 4 4c2.917-1.349 5.26-2.915 7.75-4.937C975.088 98.708 984.698 97.23 995 98c9.574 1.377 17.248 4.757 23.813 12 7.496 10.196 8.798 22.188 8.718 34.473q.005 2.01.012 4.018.008 4.167-.022 8.332c-.023 3.554-.009 7.107.015 10.662.018 3.413.005 6.825-.005 10.238l.025 3.857c-.02 1.768-.02 1.768-.038 3.573l-.01 3.138c-.637 3.397-1.842 4.581-4.508 6.709-2.806.767-5.6.604-8.5.563l-2.3.072-2.231-.006-2.018.002c-3.375-1.091-4.228-2.525-5.951-5.631-.58-4.018-.533-8.001-.504-12.055l-.028-3.56c-.03-3.754-.032-7.506-.03-11.26-.004-3.746-.014-7.492-.041-11.239a553 553 0 0 1-.007-6.988c-.04-6.072-.363-10.576-3.39-15.898-4.828-4.474-7.957-5.372-14.395-5.27-3.955.41-6.718 1.514-9.605 4.27-3.834 5.598-5.115 11.367-5.142 18.094l-.021 2.993-.013 3.198-.072 6.733c-.035 3.53-.065 7.061-.078 10.593-.015 3.412-.056 6.824-.1 10.237l.006 3.204c-.122 7.265-.122 7.265-2.368 10.612-2.304 1.392-3.516 1.85-6.18 1.867l-2.231.016-2.301-.047c-.76.015-1.519.03-2.3.047l-2.231-.016-2.018-.013c-2.877-.764-4.064-2.253-5.951-4.518-.499-2.433-.499-2.433-.498-5.177l-.03-3.126.024-3.365-.028-3.483c-.03-3.679-.032-7.357-.03-11.036a1684 1684 0 0 0-.041-10.983q-.026-3.417-.007-6.832c-.05-7.468-.585-14.492-5.39-20.498-4.23-3.172-8.935-3.082-14-2.5-5.854 1.797-9.086 4.522-12 10-.988 2.965-1.135 4.94-1.158 8.035l-.03 3.105-.023 3.352-.086 7.012q-.063 5.534-.104 11.067c-.028 3.557-.074 7.114-.122 10.671l-.01 3.34-.05 3.125-.025 2.738c-.521 3.397-1.947 6.11-4.392 8.555-2.784.154-5.527.232-8.312.25l-2.342.063c-3.46.023-5.736.013-8.826-1.641-3.25-3.576-2.674-7.92-2.681-12.46l-.015-2.401q-.021-3.933-.027-7.866l-.017-5.466q-.015-5.732-.02-11.465c-.006-4.895-.03-9.79-.058-14.684-.019-3.765-.024-7.53-.026-11.294a967 967 0 0 0-.024-5.413c-.017-2.525-.015-5.05-.008-7.576l-.028-2.254c.035-4.444.669-7.247 3.384-10.793 3.177-2.262 6.103-2.298 9.938-2.312l3.09-.051c3.364.41 5.13 1.588 7.972 3.363 3.868 0 5.449-.438 8.875-1.937 13.72-5.669 27.178-3.688 39.125 4.937M344 106l.875-1.922C346 102 346 102 348 100.75c5.737-1.434 11.025-1.512 16.563.625C367 103 367 103 368 105c.114 2.694.168 5.363.177 8.058l.02 2.523q.028 4.143.041 8.286l.013 2.855q.03 7.476.044 14.952c.011 5.154.046 10.308.085 15.462.026 3.958.035 7.916.038 11.875q.008 2.85.035 5.7c.025 2.658.024 5.314.017 7.972l.039 2.384c-.034 3.498-.232 5.548-2.304 8.422-3.256 2.231-6.403 2.055-10.205 1.948l-2.156.022c-3.189-.039-5.515-.283-8.344-1.799C344 192 344 192 344 189l-2.922 1.496-3.828 1.941-1.922.987c-10.312 5.21-23.789 5.373-34.828 2.076-13.287-5.326-21.839-14.891-27.437-27.875-4.816-12.112-4.7-26.484-.333-38.723 5.27-12.048 12.966-21.716 25.153-27.199 15.685-5.898 31.865-5.02 46.117 4.297m-40 22c-6.097 5.724-8.522 11.695-9.437 19.938.336 7.338 3.745 14.306 8.753 19.59 5.397 4.72 10.734 6.214 17.875 5.917 7.23-1.146 13.209-4.756 17.625-10.574 4.139-6.542 5.297-13.19 4.184-20.871-2.623-8.33-7.904-14.266-15.562-18.375-9.16-2.349-15.949-1.65-23.438 4.375M804.25 68.188c3.144 2.071 4.128 3.44 5.75 6.812.432 3.322.432 3.322.512 7.05l.054 1.997c.054 2.089.088 4.177.121 6.266q.05 2.133.104 4.267.126 5.21.209 10.42l2.027-1.048 2.688-1.37 2.652-1.36c10.626-4.931 21.785-3.96 32.633-.222 9.496 4.22 15.397 10.702 19.375 20.25 1.925 5.123 2.746 9.892 2.802 15.363l.039 3.338.022 3.576.025 3.702q.02 3.873.032 7.744c.017 3.946.061 7.892.105 11.838q.015 3.765.026 7.529l.053 3.57c-.017 6.314-.134 10.337-4.479 15.09-4.007 2.753-8.31 2.537-13 2-4.275-1.766-6.113-3.816-8-8-.433-3.714-.393-7.409-.371-11.145l-.053-6.677q-.014-5.243-.012-10.487c-.003-3.383-.03-6.765-.06-10.148l.025-3.142c-.065-6.302-.861-11.161-4.529-16.401-3.59-3.416-6.205-4.86-11.187-5.25-6.568.43-12.098 2.535-16.813 7.25-2.843 4.873-4.117 8.983-4.142 14.582l-.021 2.73-.013 2.93-.072 6.168c-.035 3.235-.065 6.469-.078 9.704-.015 3.126-.056 6.252-.1 9.378l.006 2.917c-.106 5.828-.743 9.128-4.58 13.591-4.011 2.756-8.305 2.53-13 2-3.382-1.323-4.623-2.425-6.608-5.45-1.891-4.823-1.82-9.097-1.796-14.234l-.02-3.224c-.02-3.51-.015-7.02-.01-10.53l-.015-7.33q-.014-7.675.003-15.352c.011-6.557-.009-13.114-.038-19.671-.018-5.045-.018-10.089-.012-15.133q0-3.627-.019-7.253c-.014-3.38-.004-6.76.013-10.14l-.029-3.022c.062-5.875.655-9.168 4.531-13.661 4.864-3.944 9.48-3.92 15.25-1.812M574.215 108.559c10.537 8.434 16.117 21.115 17.66 34.316.73 13.616-2.12 26.389-10.898 36.96-8.934 9.782-19.394 16.84-32.98 17.536-14.293.316-26.655-.672-37.974-10.434-9.604-9.196-16.697-19.812-17.359-33.539-.257-14.263 1.43-25.8 10.336-37.398l1.75-2.625c18.61-19.644 48.115-19.84 69.465-4.816M524 130c-5.238 7.179-6.882 14.213-6 23 2.141 8.682 6.613 14.333 14.188 18.938 6.726 1.874 13.784 2.387 20.25-.625 5.726-3.38 11.051-8.67 13.148-15.114 1.54-8.182 1.148-15.764-3.027-23.039-4.581-6.349-9.754-9.411-17.371-10.91-8.23-.817-15.14 2.301-21.188 7.75M743 68c4.072 2.073 6.362 3.747 8 8 .227 2.657.227 2.657.195 5.64l-.02 3.243-.05 3.367-.027 3.414q-.036 4.168-.098 8.336l3.762-.078c4.583.004 7.204.863 11.238 3.078 3.466 3.733 3.501 6.67 3.363 11.586-.509 3.382-1.866 5.137-4.363 7.414-2.765 1.382-5.046 1.095-8.125 1.063l-3.32-.028L751 123l.02 2.396q.09 11.19.135 22.379.022 5.753.071 11.504c.033 3.702.05 7.405.059 11.107q.008 2.116.032 4.233c.022 1.98.023 3.959.024 5.938l.02 3.412c-.507 4.259-2.16 6.868-5.209 9.82-4.08 2.296-8.616 1.709-13.152 1.211-3.007-1.227-4.361-2.015-6.107-4.708-1.171-3.006-1.133-5.487-1.12-8.713v-3.942l.032-4.246.008-4.355c.008-3.814.028-7.628.05-11.442.02-3.895.03-7.79.04-11.684.02-7.637.055-15.273.097-22.91l-1.865.06-2.451.045-2.428.06c-3.453-.252-4.997-1.632-7.256-4.165-2.476-4.164-2.158-7.369-1-12 2.432-3.909 4.533-5.83 9-7 2-.027 4-.03 6 0l-.063-2.216c-.084-3.323-.136-6.647-.187-9.972l-.102-3.486-.039-3.369-.063-3.094c.573-3.611 1.963-5.242 4.454-7.863 4.087-2.666 8.268-2.672 13-2M244.813 69.25c3.167 2.534 5.016 4.37 5.528 8.499l-.048 3.11-.03 3.38c-.024 1.158-.05 2.317-.076 3.511l-.04 3.559A951 951 0 0 1 250 100l1.833-.042 2.425-.032 2.395-.042c3.782.187 6.06 1.21 9.347 3.116 2.514 2.92 2.963 4.658 3.375 8.5-.487 4.545-1.797 7.005-5.094 10.129-2.995 1.8-5.064 1.672-8.531 1.558l-3.266-.082L250 123l.034 2.472q.15 11.542.225 23.085c.026 3.956.061 7.912.118 11.868.055 3.819.084 7.637.097 11.457q.015 2.183.055 4.366c.036 2.043.04 4.083.039 6.126l.033 3.52c-.783 4.046-2.477 5.514-5.601 8.106-3.943 1.971-8.702 1.447-13 1-4.193-2.31-5.553-4.54-7-9-.24-2.993-.24-2.993-.227-6.35v-3.822l.032-4.098.008-4.216c.008-3.687.028-7.374.05-11.062.02-3.767.03-7.534.04-11.302q.032-11.075.097-22.15l-3.82.078c-3.89.08-6.099-.54-9.18-3.078-2.327-2.992-2.424-6.235-2.312-9.969.534-3.472 1.989-5.463 4.312-8.031 3.815-1.786 6.849-2.07 11-2l-.048-2.016c-.062-3.036-.101-6.072-.14-9.109l-.076-3.172c-.053-5.623-.073-9.918 3.264-14.703 5.275-3.68 10.864-4.394 16.813-1.75M666.063 101.5c3.043 3.927 2.497 7.715 1.937 12.5-.702 4.107-1.627 7.348-5 10-1.914.293-1.914.293-4.055.188l-2.363-.07-4.89-.235c-4.803-.143-7.76.013-11.692 3.117-6.747 6.543-8.985 17.26-9.126 26.365a1422 1422 0 0 0-.015 5.014q-.028 2.739-.058 5.478c-.03 2.86-.051 5.719-.051 8.578a633 633 0 0 1-.078 8.319l.021 2.582c-.088 4.327-.304 6.15-2.995 9.703-3.55 2.58-6.533 2.667-10.76 2.524l-2.143.033c-3.175-.045-5.354-.293-7.996-2.107-2.532-3.503-2.351-6.72-2.3-10.882l-.017-2.558a765 765 0 0 1 .022-8.365q0-2.907-.005-5.813 0-6.09.034-12.178c.029-5.208.026-10.416.013-15.624-.007-4 .001-8 .014-12q.006-2.88 0-5.762c-.002-2.682.014-5.362.036-8.044l-.014-2.413c.073-5.367.073-5.367 1.828-7.824 4.77-3.077 11.148-2.494 16.59-2.026 3.08 1.383 4.638 2.638 7 5l2.012-1.277 2.676-1.66 2.636-1.653c8.633-4.55 20.224-3.08 28.739 1.09"/><path fill="#84C341" d="M237.375.625c3.075.094 4.457.28 7.188 1.813C246.806 6.437 246.963 9.53 246 14c-4.002 9.544-10.894 16.713-18 24l-1.734 1.957c-15.511 17.07-41.887 26.98-64.361 28.152-25.7.901-25.7.901-33.905-4.109-2.54-3.43-2.444-6.859-2-11 2.156-3.276 3.555-3.893 7.375-4.812C137 48 137 48 139.527 48.465c24.197 3.729 46.74-1.756 66.66-15.695 9.75-7.65 16.983-16.459 23.184-27.083 2.373-3.915 3.49-4.987 8.004-5.062"/><path fill="#FFF" d="m693.438 100.563 2.246.378c3.37 1.54 5.437 3.936 7.316 7.059.486 2.848.687 5.094.647 7.93l.027 2.338c.021 2.536.007 5.07-.01 7.607q.005 2.655.015 5.312.009 5.557-.027 11.116c-.029 4.741-.012 9.481.018 14.223.018 3.655.012 7.31 0 10.964q-.006 2.622.011 5.243a443 443 0 0 1-.034 7.337l.03 2.173c-.117 5.632-1.832 7.938-5.677 11.757-3.76 1.88-7.917 1.658-12 1-3.981-2.255-6.547-4.642-8-9a171 171 0 0 1-.161-7.222l-.015-2.218q-.021-3.634-.027-7.267l-.017-5.056q-.015-5.303-.02-10.604c-.006-4.523-.03-9.046-.058-13.568-.019-3.482-.024-6.964-.026-10.447a823 823 0 0 0-.024-5 694 694 0 0 1-.008-7.008l-.028-2.074c.04-4.563 1.025-7.645 3.384-11.536 3.824-3.578 7.34-4.418 12.438-3.437"/><path fill="#84C341" d="M13 1c3.432 2.844 4.78 5.465 6.25 9.625 5.717 14.283 16.82 23.016 30.574 29.148C53.144 41.055 56.58 42.023 60 43v18c-16.95-.595-32.25-10.462-44-22l-2.16-2.086C7.045 29.87.602 19.507-.312 9.625.051 5.393.99 3.924 4 1 7.584-.195 9.37.037 13 1M698.25 59.188c3.568 2.351 5.842 4.996 7.75 8.812.53 5.311.664 9.673-1.75 14.5-4.038 4.486-6.924 6.347-13.062 6.75-4.061-.067-6.75-.984-10.188-3.25-4.672-5.177-5.348-8.394-5.285-15.234.496-4.813 2.823-7.481 6.347-10.579 5.142-3.15 10.704-3.003 16.188-1"/></svg>