<svg xmlns="http://www.w3.org/2000/svg" xmlns:xlink="http://www.w3.org/1999/xlink" version="1.1" style="shape-rendering:geometricPrecision; text-rendering:geometricPrecision; image-rendering:optimizeQuality; fill-rule:evenodd; clip-rule:evenodd" viewBox="207.62 171.09 395.32 395.36">
<g><path style="opacity:0.994" fill="#1e262b" d="M 387.5,171.5 C 455.495,167.649 511.995,190.982 557,241.5C 600.364,296.316 613.031,357.649 595,425.5C 573.662,491.505 530.162,535.671 464.5,558C 383.276,579.491 313.776,559.991 256,499.5C 208.111,440.376 195.778,374.376 219,301.5C 250.054,225.612 306.221,182.279 387.5,171.5 Z"/></g>
<g><path style="opacity:1" fill="#82c041" d="M 345.5,295.5 C 345.5,301.167 345.5,306.833 345.5,312.5C 322.368,308.507 304.868,296.507 293,276.5C 291.1,272.134 289.6,267.634 288.5,263C 289.75,256.099 293.75,253.766 300.5,256C 301.667,257.167 302.833,258.333 304,259.5C 310.876,279.521 324.709,291.521 345.5,295.5 Z"/></g>
<g><path style="opacity:1" fill="#fefefe" d="M 345.5,312.5 C 345.5,306.833 345.5,301.167 345.5,295.5C 345.177,282.254 345.511,269.087 346.5,256C 390.167,255.333 433.833,255.333 477.5,256C 480.167,258.333 480.167,260.667 477.5,263C 448.835,263.5 420.169,263.667 391.5,263.5C 391.333,327.501 391.5,391.501 392,455.5C 404.347,468.014 416.847,480.348 429.5,492.5C 441.984,481.183 454.317,469.683 466.5,458C 471.496,457.336 473.33,459.502 472,464.5C 452.864,481.968 434.031,499.801 415.5,518C 412.167,520 408.833,520 405.5,518C 386,498.5 366.5,479 347,459.5C 345.51,410.584 345.01,361.584 345.5,312.5 Z"/></g>
<g><path style="opacity:1" fill="#81bf40" d="M 509.5,255.5 C 521.532,255.207 524.698,260.54 519,271.5C 496.126,305.851 463.96,321.351 422.5,318C 419.167,317.333 415.833,316.667 412.5,316C 406.826,310.431 407.16,305.431 413.5,301C 447.286,307.071 475.786,297.571 499,272.5C 502.725,266.948 506.225,261.282 509.5,255.5 Z"/></g>
</svg>