<?xml version="1.0" encoding="UTF-8"?>
<!DOCTYPE svg PUBLIC "-//W3C//DTD SVG 1.1//EN" "http://www.w3.org/Graphics/SVG/1.1/DTD/svg11.dtd">
<svg xmlns="http://www.w3.org/2000/svg" version="1.1" width="1052px" height="314px" style="shape-rendering:geometricPrecision; text-rendering:geometricPrecision; image-rendering:optimizeQuality; fill-rule:evenodd; clip-rule:evenodd" xmlns:xlink="http://www.w3.org/1999/xlink">
<g><path style="opacity:0.94" fill="#83c340" d="M 71.5,64.5 C 71.5,70.5 71.5,76.5 71.5,82.5C 48.6653,78.8435 30.8319,67.5102 18,48.5C 13.7451,42.0771 11.7451,35.0771 12,27.5C 12.7845,25.714 13.9512,24.214 15.5,23C 19.2946,22.1628 22.9613,22.4961 26.5,24C 33.7832,46.1184 48.7832,59.6184 71.5,64.5 Z"/></g>
<g><path style="opacity:0.979" fill="#1d262a" d="M 71.5,82.5 C 71.5,76.5 71.5,70.5 71.5,64.5C 71.1767,50.5877 71.5101,36.7544 72.5,23C 118.833,22.3333 165.167,22.3333 211.5,23C 213.013,25.9156 212.68,28.5823 210.5,31C 180.502,31.5 150.502,31.6666 120.5,31.5C 120.333,98.5008 120.5,165.501 121,232.5C 134.014,245.681 147.181,258.681 160.5,271.5C 173.651,259.517 186.651,247.35 199.5,235C 205.04,234.557 206.873,237.057 205,242.5C 184.803,262.365 164.303,281.865 143.5,301C 141.167,301.667 138.833,301.667 136.5,301C 115,279.5 93.5,258 72,236.5C 71.1251,235.127 70.6251,233.627 70.5,232C 71.4885,182.186 71.8219,132.353 71.5,82.5 Z"/></g>
<g><path style="opacity:0.942" fill="#83c340" d="M 244.5,22.5 C 255.33,20.4962 259.497,24.8296 257,35.5C 238.891,66.9122 211.724,84.7456 175.5,89C 166.468,89.665 157.468,89.3316 148.5,88C 139.151,87.1255 135.985,82.2921 139,73.5C 140.921,71.1334 143.421,69.8001 146.5,69.5C 180.833,76.1115 209.666,66.4448 233,40.5C 237.057,34.6164 240.89,28.6164 244.5,22.5 Z"/></g>
<g><path style="opacity:0.94" fill="#83c340" d="M 698.5,79.5 C 715.506,80.1716 721.006,88.505 715,104.5C 708.738,110.93 701.571,112.097 693.5,108C 687.885,103.032 686.052,96.865 688,89.5C 690.106,84.5573 693.606,81.224 698.5,79.5 Z"/></g>
<g><path style="opacity:0.966" fill="#1d262a" d="M 805.5,88.5 C 812.623,87.4793 817.79,90.1459 821,96.5C 821.333,106.833 821.667,117.167 822,127.5C 840.644,115.979 858.31,117.312 875,131.5C 879.907,137.651 882.907,144.651 884,152.5C 884.667,171.167 884.667,189.833 884,208.5C 880.628,215.433 875.128,217.933 867.5,216C 863.667,214.833 861.167,212.333 860,208.5C 859.667,191.833 859.333,175.167 859,158.5C 856.689,150.019 851.189,145.353 842.5,144.5C 833.068,145.129 826.568,149.795 823,158.5C 822.015,176.18 821.015,193.847 820,211.5C 814.221,217.164 807.721,217.997 800.5,214C 799.789,212.745 798.956,211.579 798,210.5C 796.352,172.893 796.019,135.227 797,97.5C 798.688,93.3148 801.521,90.3148 805.5,88.5 Z"/></g>
<g><path style="opacity:0.966" fill="#1d262a" d="M 245.5,89.5 C 252.387,88.286 257.553,90.6193 261,96.5C 261.5,105.16 261.666,113.827 261.5,122.5C 266.297,122.121 270.964,122.621 275.5,124C 282.167,130.333 282.167,136.667 275.5,143C 270.964,144.379 266.297,144.879 261.5,144.5C 261.667,166.503 261.5,188.503 261,210.5C 258.654,215.257 254.821,217.257 249.5,216.5C 242.681,217.181 238.515,214.181 237,207.5C 236.5,186.503 236.333,165.503 236.5,144.5C 227.629,145.913 222.629,142.246 221.5,133.5C 222.629,124.754 227.629,121.087 236.5,122.5C 236.334,114.493 236.5,106.493 237,98.5C 238.351,93.9848 241.185,90.9848 245.5,89.5 Z"/></g>
<g><path style="opacity:0.966" fill="#1d262a" d="M 745.5,89.5 C 750.951,88.779 755.785,90.1123 760,93.5C 760.667,94.8333 761.333,96.1667 762,97.5C 762.5,105.827 762.666,114.16 762.5,122.5C 775.982,119.822 781.816,125.156 780,138.5C 779.215,140.286 778.049,141.786 776.5,143C 771.964,144.379 767.297,144.879 762.5,144.5C 762.667,165.836 762.5,187.169 762,208.5C 760.15,214.344 756.15,217.011 750,216.5C 744.264,216.971 740.264,214.637 738,209.5C 737.5,187.836 737.333,166.169 737.5,144.5C 723.992,145.132 719.492,139.132 724,126.5C 727.735,122.904 732.235,121.571 737.5,122.5C 737.334,113.827 737.5,105.16 738,96.5C 739.742,93.2543 742.242,90.921 745.5,89.5 Z"/></g>
<g><path style="opacity:0.97" fill="#1d262a" d="M 324.5,119.5 C 335.376,119.052 345.376,121.718 354.5,127.5C 355.648,125.851 356.981,124.351 358.5,123C 364.167,122.333 369.833,122.333 375.5,123C 376.416,123.374 377.25,123.874 378,124.5C 379.65,153.747 379.983,183.081 379,212.5C 377.833,213.667 376.667,214.833 375.5,216C 370.167,216.667 364.833,216.667 359.5,216C 356.96,214.96 355.293,213.126 354.5,210.5C 332.854,223.44 312.687,221.44 294,204.5C 280.978,187.869 277.978,169.535 285,149.5C 292.605,132.049 305.772,122.049 324.5,119.5 Z M 324.5,144.5 C 344.955,144.122 354.789,154.122 354,174.5C 349.698,189.399 339.865,195.899 324.5,194C 311.681,188.837 305.847,179.337 307,165.5C 309.079,155.263 314.912,148.263 324.5,144.5 Z"/></g>
<g><path style="opacity:0.963" fill="#1d262a" d="M 435.5,119.5 C 446.567,118.817 456.733,121.483 466,127.5C 466.948,125.43 468.448,123.93 470.5,123C 476.167,122.333 481.833,122.333 487.5,123C 489.049,124.214 490.215,125.714 491,127.5C 491.667,155.167 491.667,182.833 491,210.5C 488.134,247.364 468.301,263.864 431.5,260C 415.916,257.231 404.916,248.731 398.5,234.5C 398.556,231.889 399.556,229.722 401.5,228C 405.132,225.35 409.132,223.517 413.5,222.5C 415.689,222.594 417.689,223.261 419.5,224.5C 430.393,237.932 443.06,239.932 457.5,230.5C 462.658,225.19 465.158,218.857 465,211.5C 448.341,221.981 431.508,222.148 414.5,212C 395.232,196.864 388.732,177.364 395,153.5C 401.585,133.808 415.085,122.474 435.5,119.5 Z M 435.5,144.5 C 458.25,144.079 468.084,155.079 465,177.5C 457.573,193.632 445.739,198.132 429.5,191C 420.3,183.746 416.8,174.246 419,162.5C 421.619,153.719 427.119,147.719 435.5,144.5 Z"/></g>
<g><path style="opacity:0.962" fill="#1d262a" d="M 548.5,119.5 C 581.789,119.466 600.123,135.966 603.5,169C 602.682,189.98 593.015,205.314 574.5,215C 549.387,224.016 528.554,218.183 512,197.5C 501.745,177.956 502.078,158.623 513,139.5C 522.221,127.978 534.054,121.312 548.5,119.5 Z M 547.5,144.5 C 569.606,143.775 579.439,154.441 577,176.5C 569.836,193.659 557.669,198.493 540.5,191C 527.059,178.259 526.059,164.592 537.5,150C 540.767,147.87 544.1,146.037 547.5,144.5 Z"/></g>
<g><path style="opacity:0.973" fill="#1d262a" d="M 656.5,119.5 C 663.408,119.415 670.075,120.581 676.5,123C 678.949,124.863 679.949,127.363 679.5,130.5C 679.76,136.084 678.094,140.917 674.5,145C 668.5,145 662.5,145 656.5,145C 649.773,148.065 645.606,153.231 644,160.5C 643.118,163.789 642.452,167.123 642,170.5C 641.667,184.167 641.333,197.833 641,211.5C 640.215,213.286 639.049,214.786 637.5,216C 631.833,216.667 626.167,216.667 620.5,216C 618.667,215.5 617.5,214.333 617,212.5C 616.333,183.833 616.333,155.167 617,126.5C 617.5,124.667 618.667,123.5 620.5,123C 626.167,122.333 631.833,122.333 637.5,123C 639.049,124.214 640.215,125.714 641,127.5C 645.643,123.597 650.809,120.93 656.5,119.5 Z"/></g>
<g><path style="opacity:0.962" fill="#1d262a" d="M 938.5,119.5 C 951.632,118.571 962.632,122.904 971.5,132.5C 989.261,116.656 1007.93,115.489 1027.5,129C 1033.28,135.394 1036.78,142.894 1038,151.5C 1038.67,172.167 1038.67,192.833 1038,213.5C 1037.1,214.701 1035.93,215.535 1034.5,216C 1028.83,216.667 1023.17,216.667 1017.5,216C 1016.67,215.167 1015.83,214.333 1015,213.5C 1013.69,194.923 1013.03,176.257 1013,157.5C 1007.95,144.068 999.121,140.902 986.5,148C 983.836,150.669 982.002,153.836 981,157.5C 979.734,175.79 979.067,194.123 979,212.5C 978.167,214 977,215.167 975.5,216C 969.056,216.915 962.723,216.581 956.5,215C 955.874,214.25 955.374,213.416 955,212.5C 954.667,194.833 954.333,177.167 954,159.5C 949.6,143.891 940.434,140.391 926.5,149C 923.836,151.669 922.002,154.836 921,158.5C 920.961,176.899 920.294,195.232 919,213.5C 918.167,214.333 917.333,215.167 916.5,216C 910.5,216.667 904.5,216.667 898.5,216C 896.513,214.681 895.346,212.848 895,210.5C 894.025,182.105 894.358,153.772 896,125.5C 896.833,124.667 897.667,123.833 898.5,123C 904.5,122.333 910.5,122.333 916.5,123C 918.049,124.214 919.215,125.714 920,127.5C 925.53,123.164 931.696,120.497 938.5,119.5 Z"/></g>
<g><path style="opacity:0.969" fill="#1d262a" d="M 697.5,122.5 C 704.852,120.759 710.352,123.092 714,129.5C 714.667,156.167 714.667,182.833 714,209.5C 709.513,216.549 703.346,218.383 695.5,215C 692.813,213.125 690.979,210.625 690,207.5C 689.333,182.167 689.333,156.833 690,131.5C 691.113,127.234 693.613,124.234 697.5,122.5 Z"/></g>
</svg>
