<?xml version="1.0" encoding="UTF-8"?>
<svg xmlns="http://www.w3.org/2000/svg" xmlns:xlink="http://www.w3.org/1999/xlink" width="30px" height="30px" viewBox="0 0 30 30" version="1.1">
<defs>
<linearGradient id="linear0" gradientUnits="userSpaceOnUse" x1="146.446503" y1="853.553528" x2="853.553528" y2="146.446503" gradientTransform="matrix(0.03,0,0,0.03,0,0)">
<stop offset="0" style="stop-color:rgb(100%,83.529412%,12.941176%);stop-opacity:1;"/>
<stop offset="0.0551048" style="stop-color:rgb(100%,81.568627%,12.54902%);stop-opacity:1;"/>
<stop offset="0.1241" style="stop-color:rgb(99.607843%,75.294118%,11.764706%);stop-opacity:1;"/>
<stop offset="0.2004" style="stop-color:rgb(98.823529%,65.490196%,10.588235%);stop-opacity:1;"/>
<stop offset="0.2821" style="stop-color:rgb(98.039216%,51.372549%,8.627451%);stop-opacity:1;"/>
<stop offset="0.3681" style="stop-color:rgb(97.254902%,33.333333%,6.27451%);stop-opacity:1;"/>
<stop offset="0.4563" style="stop-color:rgb(96.078431%,11.764706%,3.529412%);stop-opacity:1;"/>
<stop offset="0.5" style="stop-color:rgb(95.294118%,0%,1.960784%);stop-opacity:1;"/>
<stop offset="0.5035" style="stop-color:rgb(94.901961%,0%,2.745098%);stop-opacity:1;"/>
<stop offset="0.5966" style="stop-color:rgb(88.235294%,0%,23.137255%);stop-opacity:1;"/>
<stop offset="0.6879" style="stop-color:rgb(82.745098%,0%,40.392157%);stop-opacity:1;"/>
<stop offset="0.7757" style="stop-color:rgb(78.039216%,0%,53.333333%);stop-opacity:1;"/>
<stop offset="0.8589" style="stop-color:rgb(74.901961%,0%,62.745098%);stop-opacity:1;"/>
<stop offset="0.9357" style="stop-color:rgb(73.333333%,0%,68.627451%);stop-opacity:1;"/>
<stop offset="1" style="stop-color:rgb(72.54902%,0%,70.588235%);stop-opacity:1;"/>
</linearGradient>
</defs>
<g id="surface1">
<path style=" stroke:none;fill-rule:nonzero;fill:url(#linear0);" d="M 15 30 C 6.71875 30 0 23.28125 0 15 C 0 6.71875 6.71875 0 15 0 C 23.28125 0 30 6.71875 30 15 C 30 23.28125 23.28125 30 15 30 Z M 15 30 "/>
<path style=" stroke:none;fill-rule:nonzero;fill:rgb(100%,100%,100%);fill-opacity:1;" d="M 15 6.605469 C 17.734375 6.605469 18.058594 6.613281 19.136719 6.664062 C 20.136719 6.710938 20.679688 6.878906 21.039062 7.019531 C 21.515625 7.207031 21.859375 7.429688 22.214844 7.785156 C 22.570312 8.140625 22.792969 8.484375 22.980469 8.960938 C 23.121094 9.320312 23.285156 9.863281 23.335938 10.863281 C 23.382812 11.941406 23.394531 12.265625 23.394531 15 C 23.394531 17.734375 23.386719 18.058594 23.335938 19.136719 C 23.289062 20.136719 23.121094 20.679688 22.980469 21.039062 C 22.792969 21.515625 22.570312 21.859375 22.214844 22.214844 C 21.859375 22.570312 21.515625 22.792969 21.039062 22.980469 C 20.679688 23.121094 20.136719 23.285156 19.136719 23.335938 C 18.058594 23.382812 17.734375 23.394531 15 23.394531 C 12.265625 23.394531 11.941406 23.386719 10.863281 23.335938 C 9.863281 23.289062 9.320312 23.121094 8.960938 22.980469 C 8.484375 22.792969 8.140625 22.570312 7.785156 22.214844 C 7.429688 21.859375 7.207031 21.515625 7.019531 21.039062 C 6.878906 20.679688 6.714844 20.136719 6.664062 19.136719 C 6.617188 18.058594 6.605469 17.734375 6.605469 15 C 6.605469 12.265625 6.613281 11.941406 6.664062 10.863281 C 6.710938 9.863281 6.878906 9.320312 7.019531 8.960938 C 7.207031 8.484375 7.429688 8.140625 7.785156 7.785156 C 8.140625 7.429688 8.484375 7.207031 8.960938 7.019531 C 9.320312 6.878906 9.863281 6.714844 10.863281 6.664062 C 11.941406 6.613281 12.265625 6.605469 15 6.605469 M 15 4.761719 C 12.21875 4.761719 11.871094 4.773438 10.777344 4.824219 C 9.691406 4.875 8.945312 5.046875 8.292969 5.300781 C 7.621094 5.558594 7.046875 5.910156 6.480469 6.480469 C 5.910156 7.050781 5.5625 7.621094 5.296875 8.296875 C 5.046875 8.945312 4.871094 9.691406 4.820312 10.78125 C 4.769531 11.875 4.757812 12.222656 4.757812 15.003906 C 4.757812 17.785156 4.769531 18.132812 4.820312 19.222656 C 4.871094 20.3125 5.042969 21.058594 5.296875 21.710938 C 5.558594 22.378906 5.910156 22.953125 6.480469 23.519531 C 7.050781 24.089844 7.621094 24.4375 8.296875 24.703125 C 8.945312 24.953125 9.691406 25.128906 10.78125 25.179688 C 11.875 25.230469 12.222656 25.242188 15.003906 25.242188 C 17.785156 25.242188 18.132812 25.230469 19.222656 25.179688 C 20.3125 25.128906 21.058594 24.957031 21.710938 24.703125 C 22.378906 24.441406 22.953125 24.089844 23.519531 23.519531 C 24.089844 22.949219 24.4375 22.378906 24.703125 21.703125 C 24.953125 21.054688 25.128906 20.308594 25.179688 19.21875 C 25.230469 18.125 25.242188 17.777344 25.242188 14.996094 C 25.242188 12.214844 25.230469 11.867188 25.179688 10.777344 C 25.128906 9.6875 24.957031 8.941406 24.703125 8.289062 C 24.441406 7.621094 24.089844 7.046875 23.519531 6.480469 C 22.949219 5.910156 22.378906 5.5625 21.703125 5.296875 C 21.054688 5.046875 20.308594 4.871094 19.21875 4.820312 C 18.128906 4.773438 17.78125 4.761719 15 4.761719 Z M 15 4.761719 "/>
<path style=" stroke:none;fill-rule:nonzero;fill:rgb(100%,100%,100%);fill-opacity:1;" d="M 15 9.742188 C 12.097656 9.742188 9.742188 12.097656 9.742188 15 C 9.742188 17.902344 12.097656 20.257812 15 20.257812 C 17.902344 20.257812 20.257812 17.902344 20.257812 15 C 20.257812 12.097656 17.902344 9.742188 15 9.742188 Z M 15 18.414062 C 13.117188 18.414062 11.585938 16.886719 11.585938 15 C 11.585938 13.113281 13.117188 11.585938 15 11.585938 C 16.882812 11.585938 18.414062 13.113281 18.414062 15 C 18.414062 16.886719 16.882812 18.414062 15 18.414062 Z M 15 18.414062 "/>
<path style=" stroke:none;fill-rule:nonzero;fill:rgb(100%,100%,100%);fill-opacity:1;" d="M 21.695312 9.535156 C 21.695312 8.855469 21.144531 8.304688 20.464844 8.304688 C 19.785156 8.304688 19.234375 8.855469 19.234375 9.535156 C 19.234375 10.214844 19.785156 10.765625 20.464844 10.765625 C 21.144531 10.765625 21.695312 10.214844 21.695312 9.535156 Z M 21.695312 9.535156 "/>
</g>
</svg>
